<svg viewBox="0 0 128 128" fill="none" xmlns="http://www.w3.org/2000/svg">
  <path
    d="M85.4175 6C93.0778 6 99.2878 12.1928 99.2878 19.832C99.2878 27.4711 93.0778 33.6639 85.4175 33.6639L85.4112 33.6576H64.9049C48.2926 33.6401 34.7997 47.0336 34.7404 63.6L34.734 63.6126L34.7393 64.014C35.0023 77.658 44.4482 89.4434 57.7772 92.6819C71.2316 95.9508 85.1895 89.6722 91.6383 77.4541L71.0631 77.454C67.381 77.454 63.85 75.9936 61.2487 73.3948C58.6474 70.7959 57.1894 67.272 57.1961 63.6C57.1961 55.9626 63.4046 49.7712 71.0631 49.7712H95.4745C97.4912 49.8876 99.3798 50.7953 100.728 52.2959L121.093 77.4287L121.12 77.4288C114.66 103.146 91.4899 121.187 64.9049 121.2C32.9746 121.2 7 95.3602 7 63.6C7 31.8398 32.9493 6 64.9049 6H85.4175Z"
    fill="#203354"
  />
</svg>
